<mxfile host="app.diagrams.net" modified="2024-03-12T11:09:15.639Z" agent="Mozilla/5.0 (Windows NT 10.0; Win64; x64) AppleWebKit/537.36 (KHTML, like Gecko) Chrome/122.0.0.0 Safari/537.36" etag="k19PlVcsc5Rnljvl9luc" version="24.0.5" type="device">
  <diagram name="Page-1" id="9361dd3d-8414-5efd-6122-117bd74ce7a7">
    <mxGraphModel dx="1693" dy="925" grid="1" gridSize="10" guides="1" tooltips="1" connect="1" arrows="1" fold="1" page="0" pageScale="1.5" pageWidth="826" pageHeight="1169" background="none" math="0" shadow="0">
      <root>
        <mxCell id="0" />
        <mxCell id="1" parent="0" />
        <mxCell id="56" value="" style="edgeStyle=none;endArrow=none;dashed=1" parent="1" edge="1">
          <mxGeometry x="1204.0711805555559" y="380.08680555555554" width="100" height="100" as="geometry">
            <mxPoint x="1142.5" y="512.0833333333337" as="sourcePoint" />
            <mxPoint x="1142.5" y="530" as="targetPoint" />
          </mxGeometry>
        </mxCell>
        <mxCell id="2Txjg-x9fjX_j0PnM1tn-91" value="" style="fillColor=#CC4125;strokeColor=#660000;direction=south;" vertex="1" parent="1">
          <mxGeometry x="440" y="140" width="300" height="10" as="geometry" />
        </mxCell>
        <mxCell id="2Txjg-x9fjX_j0PnM1tn-124" value="" style="shape=table;startSize=0;container=1;collapsible=0;childLayout=tableLayout;" vertex="1" parent="1">
          <mxGeometry x="440" y="70" width="1260" height="40" as="geometry" />
        </mxCell>
        <mxCell id="2Txjg-x9fjX_j0PnM1tn-125" value="" style="shape=tableRow;horizontal=0;startSize=0;swimlaneHead=0;swimlaneBody=0;strokeColor=inherit;top=0;left=0;bottom=0;right=0;collapsible=0;dropTarget=0;fillColor=none;points=[[0,0.5],[1,0.5]];portConstraint=eastwest;" vertex="1" parent="2Txjg-x9fjX_j0PnM1tn-124">
          <mxGeometry width="1260" height="40" as="geometry" />
        </mxCell>
        <mxCell id="2Txjg-x9fjX_j0PnM1tn-126" value="day 1" style="shape=partialRectangle;html=1;whiteSpace=wrap;connectable=0;strokeColor=inherit;overflow=hidden;fillColor=none;top=0;left=0;bottom=0;right=0;pointerEvents=1;" vertex="1" parent="2Txjg-x9fjX_j0PnM1tn-125">
          <mxGeometry width="60" height="40" as="geometry">
            <mxRectangle width="60" height="40" as="alternateBounds" />
          </mxGeometry>
        </mxCell>
        <mxCell id="2Txjg-x9fjX_j0PnM1tn-127" value="day2" style="shape=partialRectangle;html=1;whiteSpace=wrap;connectable=0;strokeColor=inherit;overflow=hidden;fillColor=none;top=0;left=0;bottom=0;right=0;pointerEvents=1;" vertex="1" parent="2Txjg-x9fjX_j0PnM1tn-125">
          <mxGeometry x="60" width="60" height="40" as="geometry">
            <mxRectangle width="60" height="40" as="alternateBounds" />
          </mxGeometry>
        </mxCell>
        <mxCell id="2Txjg-x9fjX_j0PnM1tn-128" value="day3" style="shape=partialRectangle;html=1;whiteSpace=wrap;connectable=0;strokeColor=inherit;overflow=hidden;fillColor=none;top=0;left=0;bottom=0;right=0;pointerEvents=1;" vertex="1" parent="2Txjg-x9fjX_j0PnM1tn-125">
          <mxGeometry x="120" width="60" height="40" as="geometry">
            <mxRectangle width="60" height="40" as="alternateBounds" />
          </mxGeometry>
        </mxCell>
        <mxCell id="2Txjg-x9fjX_j0PnM1tn-129" value="day4" style="shape=partialRectangle;html=1;whiteSpace=wrap;connectable=0;strokeColor=inherit;overflow=hidden;fillColor=none;top=0;left=0;bottom=0;right=0;pointerEvents=1;" vertex="1" parent="2Txjg-x9fjX_j0PnM1tn-125">
          <mxGeometry x="180" width="60" height="40" as="geometry">
            <mxRectangle width="60" height="40" as="alternateBounds" />
          </mxGeometry>
        </mxCell>
        <mxCell id="2Txjg-x9fjX_j0PnM1tn-130" value="day5" style="shape=partialRectangle;html=1;whiteSpace=wrap;connectable=0;strokeColor=inherit;overflow=hidden;fillColor=none;top=0;left=0;bottom=0;right=0;pointerEvents=1;" vertex="1" parent="2Txjg-x9fjX_j0PnM1tn-125">
          <mxGeometry x="240" width="60" height="40" as="geometry">
            <mxRectangle width="60" height="40" as="alternateBounds" />
          </mxGeometry>
        </mxCell>
        <mxCell id="2Txjg-x9fjX_j0PnM1tn-131" value="day6" style="shape=partialRectangle;html=1;whiteSpace=wrap;connectable=0;strokeColor=inherit;overflow=hidden;fillColor=none;top=0;left=0;bottom=0;right=0;pointerEvents=1;" vertex="1" parent="2Txjg-x9fjX_j0PnM1tn-125">
          <mxGeometry x="300" width="60" height="40" as="geometry">
            <mxRectangle width="60" height="40" as="alternateBounds" />
          </mxGeometry>
        </mxCell>
        <mxCell id="2Txjg-x9fjX_j0PnM1tn-132" value="day7" style="shape=partialRectangle;html=1;whiteSpace=wrap;connectable=0;strokeColor=inherit;overflow=hidden;fillColor=none;top=0;left=0;bottom=0;right=0;pointerEvents=1;" vertex="1" parent="2Txjg-x9fjX_j0PnM1tn-125">
          <mxGeometry x="360" width="60" height="40" as="geometry">
            <mxRectangle width="60" height="40" as="alternateBounds" />
          </mxGeometry>
        </mxCell>
        <mxCell id="2Txjg-x9fjX_j0PnM1tn-133" value="day8" style="shape=partialRectangle;html=1;whiteSpace=wrap;connectable=0;strokeColor=inherit;overflow=hidden;fillColor=none;top=0;left=0;bottom=0;right=0;pointerEvents=1;" vertex="1" parent="2Txjg-x9fjX_j0PnM1tn-125">
          <mxGeometry x="420" width="60" height="40" as="geometry">
            <mxRectangle width="60" height="40" as="alternateBounds" />
          </mxGeometry>
        </mxCell>
        <mxCell id="2Txjg-x9fjX_j0PnM1tn-134" value="day9" style="shape=partialRectangle;html=1;whiteSpace=wrap;connectable=0;strokeColor=inherit;overflow=hidden;fillColor=none;top=0;left=0;bottom=0;right=0;pointerEvents=1;" vertex="1" parent="2Txjg-x9fjX_j0PnM1tn-125">
          <mxGeometry x="480" width="60" height="40" as="geometry">
            <mxRectangle width="60" height="40" as="alternateBounds" />
          </mxGeometry>
        </mxCell>
        <mxCell id="2Txjg-x9fjX_j0PnM1tn-135" value="day10" style="shape=partialRectangle;html=1;whiteSpace=wrap;connectable=0;strokeColor=inherit;overflow=hidden;fillColor=none;top=0;left=0;bottom=0;right=0;pointerEvents=1;" vertex="1" parent="2Txjg-x9fjX_j0PnM1tn-125">
          <mxGeometry x="540" width="60" height="40" as="geometry">
            <mxRectangle width="60" height="40" as="alternateBounds" />
          </mxGeometry>
        </mxCell>
        <mxCell id="2Txjg-x9fjX_j0PnM1tn-136" value="day10" style="shape=partialRectangle;html=1;whiteSpace=wrap;connectable=0;strokeColor=inherit;overflow=hidden;fillColor=none;top=0;left=0;bottom=0;right=0;pointerEvents=1;" vertex="1" parent="2Txjg-x9fjX_j0PnM1tn-125">
          <mxGeometry x="600" width="60" height="40" as="geometry">
            <mxRectangle width="60" height="40" as="alternateBounds" />
          </mxGeometry>
        </mxCell>
        <mxCell id="2Txjg-x9fjX_j0PnM1tn-137" value="day11" style="shape=partialRectangle;html=1;whiteSpace=wrap;connectable=0;strokeColor=inherit;overflow=hidden;fillColor=none;top=0;left=0;bottom=0;right=0;pointerEvents=1;" vertex="1" parent="2Txjg-x9fjX_j0PnM1tn-125">
          <mxGeometry x="660" width="60" height="40" as="geometry">
            <mxRectangle width="60" height="40" as="alternateBounds" />
          </mxGeometry>
        </mxCell>
        <mxCell id="2Txjg-x9fjX_j0PnM1tn-138" value="day12" style="shape=partialRectangle;html=1;whiteSpace=wrap;connectable=0;strokeColor=inherit;overflow=hidden;fillColor=none;top=0;left=0;bottom=0;right=0;pointerEvents=1;" vertex="1" parent="2Txjg-x9fjX_j0PnM1tn-125">
          <mxGeometry x="720" width="60" height="40" as="geometry">
            <mxRectangle width="60" height="40" as="alternateBounds" />
          </mxGeometry>
        </mxCell>
        <mxCell id="2Txjg-x9fjX_j0PnM1tn-139" value="day13" style="shape=partialRectangle;html=1;whiteSpace=wrap;connectable=0;strokeColor=inherit;overflow=hidden;fillColor=none;top=0;left=0;bottom=0;right=0;pointerEvents=1;" vertex="1" parent="2Txjg-x9fjX_j0PnM1tn-125">
          <mxGeometry x="780" width="60" height="40" as="geometry">
            <mxRectangle width="60" height="40" as="alternateBounds" />
          </mxGeometry>
        </mxCell>
        <mxCell id="2Txjg-x9fjX_j0PnM1tn-140" value="day14" style="shape=partialRectangle;html=1;whiteSpace=wrap;connectable=0;strokeColor=inherit;overflow=hidden;fillColor=none;top=0;left=0;bottom=0;right=0;pointerEvents=1;" vertex="1" parent="2Txjg-x9fjX_j0PnM1tn-125">
          <mxGeometry x="840" width="60" height="40" as="geometry">
            <mxRectangle width="60" height="40" as="alternateBounds" />
          </mxGeometry>
        </mxCell>
        <mxCell id="2Txjg-x9fjX_j0PnM1tn-141" value="day15" style="shape=partialRectangle;html=1;whiteSpace=wrap;connectable=0;strokeColor=inherit;overflow=hidden;fillColor=none;top=0;left=0;bottom=0;right=0;pointerEvents=1;" vertex="1" parent="2Txjg-x9fjX_j0PnM1tn-125">
          <mxGeometry x="900" width="60" height="40" as="geometry">
            <mxRectangle width="60" height="40" as="alternateBounds" />
          </mxGeometry>
        </mxCell>
        <mxCell id="2Txjg-x9fjX_j0PnM1tn-142" value="day16" style="shape=partialRectangle;html=1;whiteSpace=wrap;connectable=0;strokeColor=inherit;overflow=hidden;fillColor=none;top=0;left=0;bottom=0;right=0;pointerEvents=1;" vertex="1" parent="2Txjg-x9fjX_j0PnM1tn-125">
          <mxGeometry x="960" width="60" height="40" as="geometry">
            <mxRectangle width="60" height="40" as="alternateBounds" />
          </mxGeometry>
        </mxCell>
        <mxCell id="2Txjg-x9fjX_j0PnM1tn-143" value="day17" style="shape=partialRectangle;html=1;whiteSpace=wrap;connectable=0;strokeColor=inherit;overflow=hidden;fillColor=none;top=0;left=0;bottom=0;right=0;pointerEvents=1;" vertex="1" parent="2Txjg-x9fjX_j0PnM1tn-125">
          <mxGeometry x="1020" width="60" height="40" as="geometry">
            <mxRectangle width="60" height="40" as="alternateBounds" />
          </mxGeometry>
        </mxCell>
        <mxCell id="2Txjg-x9fjX_j0PnM1tn-144" value="day18" style="shape=partialRectangle;html=1;whiteSpace=wrap;connectable=0;strokeColor=inherit;overflow=hidden;fillColor=none;top=0;left=0;bottom=0;right=0;pointerEvents=1;" vertex="1" parent="2Txjg-x9fjX_j0PnM1tn-125">
          <mxGeometry x="1080" width="60" height="40" as="geometry">
            <mxRectangle width="60" height="40" as="alternateBounds" />
          </mxGeometry>
        </mxCell>
        <mxCell id="2Txjg-x9fjX_j0PnM1tn-145" value="day19" style="shape=partialRectangle;html=1;whiteSpace=wrap;connectable=0;strokeColor=inherit;overflow=hidden;fillColor=none;top=0;left=0;bottom=0;right=0;pointerEvents=1;" vertex="1" parent="2Txjg-x9fjX_j0PnM1tn-125">
          <mxGeometry x="1140" width="60" height="40" as="geometry">
            <mxRectangle width="60" height="40" as="alternateBounds" />
          </mxGeometry>
        </mxCell>
        <mxCell id="2Txjg-x9fjX_j0PnM1tn-170" value="end" style="shape=partialRectangle;html=1;whiteSpace=wrap;connectable=0;strokeColor=inherit;overflow=hidden;fillColor=none;top=0;left=0;bottom=0;right=0;pointerEvents=1;" vertex="1" parent="2Txjg-x9fjX_j0PnM1tn-125">
          <mxGeometry x="1200" width="60" height="40" as="geometry">
            <mxRectangle width="60" height="40" as="alternateBounds" />
          </mxGeometry>
        </mxCell>
        <mxCell id="2Txjg-x9fjX_j0PnM1tn-171" style="edgeStyle=orthogonalEdgeStyle;rounded=0;orthogonalLoop=1;jettySize=auto;html=1;exitX=0;exitY=1.018;exitDx=0;exitDy=0;exitPerimeter=0;entryX=0.015;entryY=-0.008;entryDx=0;entryDy=0;entryPerimeter=0;" edge="1" parent="1" source="2Txjg-x9fjX_j0PnM1tn-125" target="2Txjg-x9fjX_j0PnM1tn-215">
          <mxGeometry relative="1" as="geometry">
            <mxPoint x="440.1034482758621" y="310" as="targetPoint" />
            <Array as="points">
              <mxPoint x="440" y="1179" />
            </Array>
          </mxGeometry>
        </mxCell>
        <mxCell id="2Txjg-x9fjX_j0PnM1tn-172" style="edgeStyle=orthogonalEdgeStyle;rounded=0;orthogonalLoop=1;jettySize=auto;html=1;exitX=0;exitY=1.018;exitDx=0;exitDy=0;exitPerimeter=0;entryX=0.063;entryY=-0.017;entryDx=0;entryDy=0;entryPerimeter=0;" edge="1" parent="1" target="2Txjg-x9fjX_j0PnM1tn-215">
          <mxGeometry relative="1" as="geometry">
            <mxPoint x="500.1034482758621" y="309" as="targetPoint" />
            <mxPoint x="500" y="110" as="sourcePoint" />
            <Array as="points">
              <mxPoint x="500" y="1179" />
            </Array>
          </mxGeometry>
        </mxCell>
        <mxCell id="2Txjg-x9fjX_j0PnM1tn-173" style="edgeStyle=orthogonalEdgeStyle;rounded=0;orthogonalLoop=1;jettySize=auto;html=1;exitX=0;exitY=1.018;exitDx=0;exitDy=0;exitPerimeter=0;entryX=0.099;entryY=-0.017;entryDx=0;entryDy=0;entryPerimeter=0;" edge="1" parent="1" target="2Txjg-x9fjX_j0PnM1tn-215">
          <mxGeometry relative="1" as="geometry">
            <mxPoint x="560.1034482758621" y="309" as="targetPoint" />
            <mxPoint x="560" y="110" as="sourcePoint" />
            <Array as="points">
              <mxPoint x="560" y="1179" />
            </Array>
          </mxGeometry>
        </mxCell>
        <mxCell id="2Txjg-x9fjX_j0PnM1tn-174" style="edgeStyle=orthogonalEdgeStyle;rounded=0;orthogonalLoop=1;jettySize=auto;html=1;exitX=0;exitY=1.018;exitDx=0;exitDy=0;exitPerimeter=0;entryX=0.147;entryY=0;entryDx=0;entryDy=0;entryPerimeter=0;" edge="1" parent="1" target="2Txjg-x9fjX_j0PnM1tn-215">
          <mxGeometry relative="1" as="geometry">
            <mxPoint x="620.1034482758621" y="309" as="targetPoint" />
            <mxPoint x="620" y="110" as="sourcePoint" />
            <Array as="points">
              <mxPoint x="620" y="1180" />
            </Array>
          </mxGeometry>
        </mxCell>
        <mxCell id="2Txjg-x9fjX_j0PnM1tn-175" style="edgeStyle=orthogonalEdgeStyle;rounded=0;orthogonalLoop=1;jettySize=auto;html=1;exitX=0;exitY=1.018;exitDx=0;exitDy=0;exitPerimeter=0;entryX=0.191;entryY=-0.033;entryDx=0;entryDy=0;entryPerimeter=0;" edge="1" parent="1" target="2Txjg-x9fjX_j0PnM1tn-215">
          <mxGeometry relative="1" as="geometry">
            <mxPoint x="680.1034482758621" y="309" as="targetPoint" />
            <mxPoint x="680" y="110" as="sourcePoint" />
            <Array as="points">
              <mxPoint x="680" y="1177" />
            </Array>
          </mxGeometry>
        </mxCell>
        <mxCell id="2Txjg-x9fjX_j0PnM1tn-176" style="edgeStyle=orthogonalEdgeStyle;rounded=0;orthogonalLoop=1;jettySize=auto;html=1;exitX=0;exitY=1.018;exitDx=0;exitDy=0;exitPerimeter=0;entryX=0.237;entryY=0;entryDx=0;entryDy=0;entryPerimeter=0;" edge="1" parent="1" target="2Txjg-x9fjX_j0PnM1tn-215">
          <mxGeometry relative="1" as="geometry">
            <mxPoint x="740.1034482758621" y="309" as="targetPoint" />
            <mxPoint x="740" y="110" as="sourcePoint" />
            <Array as="points">
              <mxPoint x="740" y="1180" />
            </Array>
          </mxGeometry>
        </mxCell>
        <mxCell id="2Txjg-x9fjX_j0PnM1tn-195" style="edgeStyle=orthogonalEdgeStyle;rounded=0;orthogonalLoop=1;jettySize=auto;html=1;exitX=0;exitY=1.018;exitDx=0;exitDy=0;exitPerimeter=0;entryX=0.284;entryY=0;entryDx=0;entryDy=0;entryPerimeter=0;" edge="1" parent="1" target="2Txjg-x9fjX_j0PnM1tn-215">
          <mxGeometry relative="1" as="geometry">
            <mxPoint x="800.1034482758621" y="310" as="targetPoint" />
            <mxPoint x="800" y="111" as="sourcePoint" />
            <Array as="points">
              <mxPoint x="800" y="1180" />
            </Array>
          </mxGeometry>
        </mxCell>
        <mxCell id="2Txjg-x9fjX_j0PnM1tn-196" style="edgeStyle=orthogonalEdgeStyle;rounded=0;orthogonalLoop=1;jettySize=auto;html=1;exitX=0;exitY=1.018;exitDx=0;exitDy=0;exitPerimeter=0;entryX=0.328;entryY=0.01;entryDx=0;entryDy=0;entryPerimeter=0;" edge="1" parent="1" target="2Txjg-x9fjX_j0PnM1tn-215">
          <mxGeometry relative="1" as="geometry">
            <mxPoint x="860" y="430" as="targetPoint" />
            <mxPoint x="860" y="110" as="sourcePoint" />
            <Array as="points">
              <mxPoint x="860" y="410" />
              <mxPoint x="860" y="410" />
            </Array>
          </mxGeometry>
        </mxCell>
        <mxCell id="2Txjg-x9fjX_j0PnM1tn-197" style="edgeStyle=orthogonalEdgeStyle;rounded=0;orthogonalLoop=1;jettySize=auto;html=1;exitX=0;exitY=1.018;exitDx=0;exitDy=0;exitPerimeter=0;entryX=0.368;entryY=0.033;entryDx=0;entryDy=0;entryPerimeter=0;" edge="1" parent="1" target="2Txjg-x9fjX_j0PnM1tn-215">
          <mxGeometry relative="1" as="geometry">
            <mxPoint x="920.1034482758621" y="309" as="targetPoint" />
            <mxPoint x="920" y="110" as="sourcePoint" />
            <Array as="points">
              <mxPoint x="920" y="1183" />
            </Array>
          </mxGeometry>
        </mxCell>
        <mxCell id="2Txjg-x9fjX_j0PnM1tn-198" style="edgeStyle=orthogonalEdgeStyle;rounded=0;orthogonalLoop=1;jettySize=auto;html=1;exitX=0;exitY=1.018;exitDx=0;exitDy=0;exitPerimeter=0;entryX=0.419;entryY=0.033;entryDx=0;entryDy=0;entryPerimeter=0;" edge="1" parent="1" target="2Txjg-x9fjX_j0PnM1tn-215">
          <mxGeometry relative="1" as="geometry">
            <mxPoint x="980.1034482758621" y="309" as="targetPoint" />
            <mxPoint x="980" y="110" as="sourcePoint" />
            <Array as="points">
              <mxPoint x="980" y="443" />
              <mxPoint x="982" y="443" />
              <mxPoint x="982" y="1183" />
            </Array>
          </mxGeometry>
        </mxCell>
        <mxCell id="2Txjg-x9fjX_j0PnM1tn-199" style="edgeStyle=orthogonalEdgeStyle;rounded=0;orthogonalLoop=1;jettySize=auto;html=1;exitX=0;exitY=1.018;exitDx=0;exitDy=0;exitPerimeter=0;entryX=0.466;entryY=0.017;entryDx=0;entryDy=0;entryPerimeter=0;" edge="1" parent="1" target="2Txjg-x9fjX_j0PnM1tn-215">
          <mxGeometry relative="1" as="geometry">
            <mxPoint x="1040.103448275862" y="309" as="targetPoint" />
            <mxPoint x="1040" y="110" as="sourcePoint" />
            <Array as="points">
              <mxPoint x="1040" y="1181" />
            </Array>
          </mxGeometry>
        </mxCell>
        <mxCell id="2Txjg-x9fjX_j0PnM1tn-200" style="edgeStyle=orthogonalEdgeStyle;rounded=0;orthogonalLoop=1;jettySize=auto;html=1;exitX=0;exitY=1.018;exitDx=0;exitDy=0;exitPerimeter=0;entryX=0.5;entryY=0;entryDx=0;entryDy=0;" edge="1" parent="1" target="2Txjg-x9fjX_j0PnM1tn-215">
          <mxGeometry relative="1" as="geometry">
            <mxPoint x="1100.103448275862" y="309" as="targetPoint" />
            <mxPoint x="1100" y="110" as="sourcePoint" />
            <Array as="points">
              <mxPoint x="1100" y="1180" />
            </Array>
          </mxGeometry>
        </mxCell>
        <mxCell id="2Txjg-x9fjX_j0PnM1tn-201" value="" style="edgeStyle=none;endArrow=none;dashed=1" edge="1" parent="1">
          <mxGeometry x="1204.0711805555559" y="380.08680555555554" width="100" height="100" as="geometry">
            <mxPoint x="1862.5" y="512.0833333333337" as="sourcePoint" />
            <mxPoint x="1862.5" y="530" as="targetPoint" />
          </mxGeometry>
        </mxCell>
        <mxCell id="2Txjg-x9fjX_j0PnM1tn-202" style="edgeStyle=orthogonalEdgeStyle;rounded=0;orthogonalLoop=1;jettySize=auto;html=1;exitX=0;exitY=1.018;exitDx=0;exitDy=0;exitPerimeter=0;entryX=0.544;entryY=0.033;entryDx=0;entryDy=0;entryPerimeter=0;" edge="1" parent="1" target="2Txjg-x9fjX_j0PnM1tn-215">
          <mxGeometry relative="1" as="geometry">
            <mxPoint x="1160.103448275862" y="310" as="targetPoint" />
            <mxPoint x="1160" y="111" as="sourcePoint" />
            <Array as="points">
              <mxPoint x="1160" y="1183" />
            </Array>
          </mxGeometry>
        </mxCell>
        <mxCell id="2Txjg-x9fjX_j0PnM1tn-203" style="edgeStyle=orthogonalEdgeStyle;rounded=0;orthogonalLoop=1;jettySize=auto;html=1;exitX=0;exitY=1.018;exitDx=0;exitDy=0;exitPerimeter=0;entryX=0.599;entryY=-0.05;entryDx=0;entryDy=0;entryPerimeter=0;" edge="1" parent="1" target="2Txjg-x9fjX_j0PnM1tn-215">
          <mxGeometry relative="1" as="geometry">
            <mxPoint x="1220.103448275862" y="309" as="targetPoint" />
            <mxPoint x="1220" y="110" as="sourcePoint" />
            <Array as="points">
              <mxPoint x="1220" y="1176" />
            </Array>
          </mxGeometry>
        </mxCell>
        <mxCell id="2Txjg-x9fjX_j0PnM1tn-204" style="edgeStyle=orthogonalEdgeStyle;rounded=0;orthogonalLoop=1;jettySize=auto;html=1;exitX=0;exitY=1.018;exitDx=0;exitDy=0;exitPerimeter=0;entryX=0.638;entryY=0;entryDx=0;entryDy=0;entryPerimeter=0;" edge="1" parent="1" target="2Txjg-x9fjX_j0PnM1tn-215">
          <mxGeometry relative="1" as="geometry">
            <mxPoint x="1280.103448275862" y="309" as="targetPoint" />
            <mxPoint x="1280" y="110" as="sourcePoint" />
            <Array as="points">
              <mxPoint x="1280" y="1180" />
            </Array>
          </mxGeometry>
        </mxCell>
        <mxCell id="2Txjg-x9fjX_j0PnM1tn-205" style="edgeStyle=orthogonalEdgeStyle;rounded=0;orthogonalLoop=1;jettySize=auto;html=1;exitX=0;exitY=1.018;exitDx=0;exitDy=0;exitPerimeter=0;entryX=0.692;entryY=-0.033;entryDx=0;entryDy=0;entryPerimeter=0;" edge="1" parent="1" target="2Txjg-x9fjX_j0PnM1tn-215">
          <mxGeometry relative="1" as="geometry">
            <mxPoint x="1340.103448275862" y="309" as="targetPoint" />
            <mxPoint x="1340" y="110" as="sourcePoint" />
            <Array as="points">
              <mxPoint x="1340" y="1177" />
            </Array>
          </mxGeometry>
        </mxCell>
        <mxCell id="2Txjg-x9fjX_j0PnM1tn-206" style="edgeStyle=orthogonalEdgeStyle;rounded=0;orthogonalLoop=1;jettySize=auto;html=1;exitX=0;exitY=1.018;exitDx=0;exitDy=0;exitPerimeter=0;entryX=0.735;entryY=0.017;entryDx=0;entryDy=0;entryPerimeter=0;" edge="1" parent="1" target="2Txjg-x9fjX_j0PnM1tn-215">
          <mxGeometry relative="1" as="geometry">
            <mxPoint x="1400.103448275862" y="309" as="targetPoint" />
            <mxPoint x="1400" y="110" as="sourcePoint" />
            <Array as="points">
              <mxPoint x="1400" y="1181" />
            </Array>
          </mxGeometry>
        </mxCell>
        <mxCell id="2Txjg-x9fjX_j0PnM1tn-207" style="edgeStyle=orthogonalEdgeStyle;rounded=0;orthogonalLoop=1;jettySize=auto;html=1;exitX=0;exitY=1.018;exitDx=0;exitDy=0;exitPerimeter=0;entryX=0.775;entryY=0.033;entryDx=0;entryDy=0;entryPerimeter=0;" edge="1" parent="1" target="2Txjg-x9fjX_j0PnM1tn-215">
          <mxGeometry relative="1" as="geometry">
            <mxPoint x="1460.103448275862" y="309" as="targetPoint" />
            <mxPoint x="1460" y="110" as="sourcePoint" />
            <Array as="points">
              <mxPoint x="1460" y="1183" />
            </Array>
          </mxGeometry>
        </mxCell>
        <mxCell id="2Txjg-x9fjX_j0PnM1tn-208" style="edgeStyle=orthogonalEdgeStyle;rounded=0;orthogonalLoop=1;jettySize=auto;html=1;exitX=0;exitY=1.018;exitDx=0;exitDy=0;exitPerimeter=0;entryX=0.825;entryY=0;entryDx=0;entryDy=0;entryPerimeter=0;" edge="1" parent="1" target="2Txjg-x9fjX_j0PnM1tn-215">
          <mxGeometry relative="1" as="geometry">
            <mxPoint x="1520.103448275862" y="310" as="targetPoint" />
            <mxPoint x="1520" y="111" as="sourcePoint" />
            <Array as="points">
              <mxPoint x="1520" y="1180" />
              <mxPoint x="1525" y="1180" />
            </Array>
          </mxGeometry>
        </mxCell>
        <mxCell id="2Txjg-x9fjX_j0PnM1tn-209" style="edgeStyle=orthogonalEdgeStyle;rounded=0;orthogonalLoop=1;jettySize=auto;html=1;exitX=0;exitY=1.018;exitDx=0;exitDy=0;exitPerimeter=0;entryX=0.874;entryY=-0.033;entryDx=0;entryDy=0;entryPerimeter=0;" edge="1" parent="1" target="2Txjg-x9fjX_j0PnM1tn-215">
          <mxGeometry relative="1" as="geometry">
            <mxPoint x="1580.103448275862" y="309" as="targetPoint" />
            <mxPoint x="1580" y="110" as="sourcePoint" />
            <Array as="points">
              <mxPoint x="1580" y="1387" />
            </Array>
          </mxGeometry>
        </mxCell>
        <mxCell id="2Txjg-x9fjX_j0PnM1tn-210" style="edgeStyle=orthogonalEdgeStyle;rounded=0;orthogonalLoop=1;jettySize=auto;html=1;exitX=0;exitY=1.018;exitDx=0;exitDy=0;exitPerimeter=0;entryX=0.92;entryY=-0.017;entryDx=0;entryDy=0;entryPerimeter=0;" edge="1" parent="1" target="2Txjg-x9fjX_j0PnM1tn-215">
          <mxGeometry relative="1" as="geometry">
            <mxPoint x="1640.103448275862" y="309" as="targetPoint" />
            <mxPoint x="1640" y="110" as="sourcePoint" />
            <Array as="points">
              <mxPoint x="1640" y="1389" />
            </Array>
          </mxGeometry>
        </mxCell>
        <mxCell id="2Txjg-x9fjX_j0PnM1tn-211" style="edgeStyle=orthogonalEdgeStyle;rounded=0;orthogonalLoop=1;jettySize=auto;html=1;exitX=0;exitY=1.018;exitDx=0;exitDy=0;exitPerimeter=0;entryX=0.953;entryY=-0.017;entryDx=0;entryDy=0;entryPerimeter=0;" edge="1" parent="1" target="2Txjg-x9fjX_j0PnM1tn-215">
          <mxGeometry relative="1" as="geometry">
            <mxPoint x="1700.103448275862" y="309" as="targetPoint" />
            <mxPoint x="1700" y="110" as="sourcePoint" />
            <Array as="points">
              <mxPoint x="1700" y="1389" />
            </Array>
          </mxGeometry>
        </mxCell>
        <mxCell id="2Txjg-x9fjX_j0PnM1tn-215" value="" style="shape=ext;double=1;rounded=0;whiteSpace=wrap;html=1;" vertex="1" parent="1">
          <mxGeometry x="420" y="1390" width="1340" height="80" as="geometry" />
        </mxCell>
        <mxCell id="2Txjg-x9fjX_j0PnM1tn-216" value="" style="fillColor=#CCCC33;strokeColor=#660000;direction=south;" vertex="1" parent="1">
          <mxGeometry x="740" y="140" width="300" height="10" as="geometry" />
        </mxCell>
        <mxCell id="2Txjg-x9fjX_j0PnM1tn-218" value="" style="fillColor=#3F94CC;strokeColor=#660000;direction=south;" vertex="1" parent="1">
          <mxGeometry x="1040" y="140" width="300" height="10" as="geometry" />
        </mxCell>
        <mxCell id="2Txjg-x9fjX_j0PnM1tn-219" value="" style="fillColor=#C370CC;strokeColor=#642966;direction=south;" vertex="1" parent="1">
          <mxGeometry x="1340" y="140" width="300" height="10" as="geometry" />
        </mxCell>
        <mxCell id="2Txjg-x9fjX_j0PnM1tn-220" value="" style="fillColor=#CC4125;strokeColor=#660000;direction=south;" vertex="1" parent="1">
          <mxGeometry x="440" y="-50" width="40" height="10" as="geometry" />
        </mxCell>
        <mxCell id="2Txjg-x9fjX_j0PnM1tn-221" value="" style="fillColor=#CCCC33;strokeColor=#660000;direction=south;" vertex="1" parent="1">
          <mxGeometry x="440" y="-20" width="40" height="10" as="geometry" />
        </mxCell>
        <mxCell id="2Txjg-x9fjX_j0PnM1tn-222" value="" style="fillColor=#3F94CC;strokeColor=#660000;direction=south;" vertex="1" parent="1">
          <mxGeometry x="440" y="10" width="40" height="10" as="geometry" />
        </mxCell>
        <mxCell id="2Txjg-x9fjX_j0PnM1tn-223" value="" style="fillColor=#C370CC;strokeColor=#642966;direction=south;" vertex="1" parent="1">
          <mxGeometry x="440" y="40" width="40" height="10" as="geometry" />
        </mxCell>
        <mxCell id="2Txjg-x9fjX_j0PnM1tn-224" value="Triển Khai Logic hệ thống" style="text;html=1;align=center;verticalAlign=middle;resizable=0;points=[];autosize=1;strokeColor=none;fillColor=none;" vertex="1" parent="1">
          <mxGeometry x="480" y="-60" width="160" height="30" as="geometry" />
        </mxCell>
        <mxCell id="2Txjg-x9fjX_j0PnM1tn-225" value="Phát triển các thành phần cơ sở dữ liệu" style="text;html=1;align=center;verticalAlign=middle;resizable=0;points=[];autosize=1;strokeColor=none;fillColor=none;" vertex="1" parent="1">
          <mxGeometry x="480" y="-30" width="230" height="30" as="geometry" />
        </mxCell>
        <mxCell id="2Txjg-x9fjX_j0PnM1tn-226" value="Lập trình hệ thống" style="text;html=1;align=center;verticalAlign=middle;resizable=0;points=[];autosize=1;strokeColor=none;fillColor=none;" vertex="1" parent="1">
          <mxGeometry x="480" width="120" height="30" as="geometry" />
        </mxCell>
        <mxCell id="2Txjg-x9fjX_j0PnM1tn-227" value="Đánh giá tối ưu mã nguồn&amp;nbsp;" style="text;html=1;align=center;verticalAlign=middle;resizable=0;points=[];autosize=1;strokeColor=none;fillColor=none;" vertex="1" parent="1">
          <mxGeometry x="480" y="30" width="170" height="30" as="geometry" />
        </mxCell>
        <mxCell id="2Txjg-x9fjX_j0PnM1tn-241" style="edgeStyle=orthogonalEdgeStyle;rounded=0;orthogonalLoop=1;jettySize=auto;html=1;" edge="1" parent="1" source="2Txjg-x9fjX_j0PnM1tn-240" target="2Txjg-x9fjX_j0PnM1tn-242">
          <mxGeometry relative="1" as="geometry">
            <mxPoint x="410" y="175" as="targetPoint" />
          </mxGeometry>
        </mxCell>
        <mxCell id="2Txjg-x9fjX_j0PnM1tn-240" value="" style="rounded=1;whiteSpace=wrap;html=1;strokeWidth=2;fillWeight=4;hachureGap=8;hachureAngle=45;fillColor=#1ba1e2;sketch=1;" vertex="1" parent="1">
          <mxGeometry x="440" y="160" width="60" height="10" as="geometry" />
        </mxCell>
        <mxCell id="2Txjg-x9fjX_j0PnM1tn-242" value="1. Phân tích thuật toán cho từng chức năng hệ thống từ tài liệu thiết kế" style="text;html=1;align=center;verticalAlign=middle;resizable=0;points=[];autosize=1;strokeColor=none;fillColor=none;" vertex="1" parent="1">
          <mxGeometry x="20" y="150" width="400" height="30" as="geometry" />
        </mxCell>
        <mxCell id="2Txjg-x9fjX_j0PnM1tn-243" value="" style="rounded=1;whiteSpace=wrap;html=1;strokeWidth=2;fillWeight=4;hachureGap=8;hachureAngle=45;fillColor=#1ba1e2;sketch=1;" vertex="1" parent="1">
          <mxGeometry x="712.5" y="22" width="60" height="10" as="geometry" />
        </mxCell>
        <mxCell id="2Txjg-x9fjX_j0PnM1tn-250" style="edgeStyle=orthogonalEdgeStyle;rounded=0;orthogonalLoop=1;jettySize=auto;html=1;" edge="1" parent="1" source="2Txjg-x9fjX_j0PnM1tn-244" target="2Txjg-x9fjX_j0PnM1tn-249">
          <mxGeometry relative="1" as="geometry" />
        </mxCell>
        <mxCell id="2Txjg-x9fjX_j0PnM1tn-244" value="" style="rounded=1;whiteSpace=wrap;html=1;strokeWidth=2;fillWeight=4;hachureGap=8;hachureAngle=45;fillColor=#00994D;sketch=1;" vertex="1" parent="1">
          <mxGeometry x="440" y="180" width="30" height="10" as="geometry" />
        </mxCell>
        <mxCell id="2Txjg-x9fjX_j0PnM1tn-249" value="0.5day" style="text;html=1;align=center;verticalAlign=middle;resizable=0;points=[];autosize=1;strokeColor=none;fillColor=none;" vertex="1" parent="1">
          <mxGeometry x="360" y="170" width="60" height="30" as="geometry" />
        </mxCell>
        <mxCell id="2Txjg-x9fjX_j0PnM1tn-251" value="" style="rounded=1;whiteSpace=wrap;html=1;strokeWidth=2;fillWeight=4;hachureGap=8;hachureAngle=45;fillColor=#00994D;sketch=1;" vertex="1" parent="1">
          <mxGeometry x="440" y="200" width="60" height="10" as="geometry" />
        </mxCell>
        <mxCell id="2Txjg-x9fjX_j0PnM1tn-254" value="&lt;span style=&quot;color: rgba(0, 0, 0, 0); font-family: monospace; font-size: 0px; text-align: start;&quot;&gt;%3CmxGraphModel%3E%3Croot%3E%3CmxCell%20id%3D%220%22%2F%3E%3CmxCell%20id%3D%221%22%20parent%3D%220%22%2F%3E%3CmxCell%20id%3D%222%22%20value%3D%22%22%20style%3D%22rounded%3D1%3BwhiteSpace%3Dwrap%3Bhtml%3D1%3BstrokeWidth%3D2%3BfillWeight%3D4%3BhachureGap%3D8%3BhachureAngle%3D45%3BfillColor%3D%2300994D%3Bsketch%3D1%3B%22%20vertex%3D%221%22%20parent%3D%221%22%3E%3CmxGeometry%20x%3D%22440%22%20y%3D%22180%22%20width%3D%2230%22%20height%3D%2210%22%20as%3D%22geometry%22%2F%3E%3C%2FmxCell%3E%3C%2Froot%3E%3C%2FmxGraphModel%3E&lt;/span&gt;" style="text;html=1;align=center;verticalAlign=middle;resizable=0;points=[];autosize=1;strokeColor=none;fillColor=none;" vertex="1" parent="1">
          <mxGeometry x="340" y="200" width="20" height="30" as="geometry" />
        </mxCell>
        <mxCell id="2Txjg-x9fjX_j0PnM1tn-255" value="&lt;div&gt;1day&lt;/div&gt;&lt;div&gt;&lt;br&gt;&lt;/div&gt;" style="text;html=1;align=center;verticalAlign=middle;resizable=0;points=[];autosize=1;strokeColor=none;fillColor=none;" vertex="1" parent="1">
          <mxGeometry x="365" y="195" width="50" height="40" as="geometry" />
        </mxCell>
        <mxCell id="2Txjg-x9fjX_j0PnM1tn-256" style="edgeStyle=orthogonalEdgeStyle;rounded=0;orthogonalLoop=1;jettySize=auto;html=1;entryX=1.004;entryY=0.277;entryDx=0;entryDy=0;entryPerimeter=0;" edge="1" parent="1" source="2Txjg-x9fjX_j0PnM1tn-251" target="2Txjg-x9fjX_j0PnM1tn-255">
          <mxGeometry relative="1" as="geometry">
            <Array as="points">
              <mxPoint x="420" y="206" />
              <mxPoint x="420" y="206" />
            </Array>
          </mxGeometry>
        </mxCell>
        <mxCell id="2Txjg-x9fjX_j0PnM1tn-258" value="" style="rounded=1;whiteSpace=wrap;html=1;strokeWidth=2;fillWeight=4;hachureGap=8;hachureAngle=45;fillColor=#00994D;sketch=1;" vertex="1" parent="1">
          <mxGeometry x="712.5" y="52" width="60" height="10" as="geometry" />
        </mxCell>
        <mxCell id="2Txjg-x9fjX_j0PnM1tn-259" value="ý lớn" style="text;html=1;align=center;verticalAlign=middle;resizable=0;points=[];autosize=1;strokeColor=none;fillColor=none;" vertex="1" parent="1">
          <mxGeometry x="777.5" y="10" width="50" height="30" as="geometry" />
        </mxCell>
        <mxCell id="2Txjg-x9fjX_j0PnM1tn-260" value="ý nhỏ" style="text;html=1;align=center;verticalAlign=middle;resizable=0;points=[];autosize=1;strokeColor=none;fillColor=none;" vertex="1" parent="1">
          <mxGeometry x="777.5" y="40" width="50" height="30" as="geometry" />
        </mxCell>
        <mxCell id="2Txjg-x9fjX_j0PnM1tn-261" value="" style="rounded=1;whiteSpace=wrap;html=1;strokeWidth=2;fillWeight=4;hachureGap=8;hachureAngle=45;fillColor=#1ba1e2;sketch=1;" vertex="1" parent="1">
          <mxGeometry x="440" y="220" width="120" height="10" as="geometry" />
        </mxCell>
        <mxCell id="2Txjg-x9fjX_j0PnM1tn-262" value="" style="rounded=1;whiteSpace=wrap;html=1;strokeWidth=2;fillWeight=4;hachureGap=8;hachureAngle=45;fillColor=#00994D;sketch=1;" vertex="1" parent="1">
          <mxGeometry x="440" y="240" width="30" height="10" as="geometry" />
        </mxCell>
        <mxCell id="2Txjg-x9fjX_j0PnM1tn-263" value="" style="rounded=1;whiteSpace=wrap;html=1;strokeWidth=2;fillWeight=4;hachureGap=8;hachureAngle=45;fillColor=#00994D;sketch=1;" vertex="1" parent="1">
          <mxGeometry x="500" y="280" width="60" height="10" as="geometry" />
        </mxCell>
        <mxCell id="2Txjg-x9fjX_j0PnM1tn-282" style="edgeStyle=orthogonalEdgeStyle;rounded=0;orthogonalLoop=1;jettySize=auto;html=1;entryX=1;entryY=0.355;entryDx=0;entryDy=0;entryPerimeter=0;" edge="1" parent="1" source="2Txjg-x9fjX_j0PnM1tn-264" target="2Txjg-x9fjX_j0PnM1tn-281">
          <mxGeometry relative="1" as="geometry" />
        </mxCell>
        <mxCell id="2Txjg-x9fjX_j0PnM1tn-264" value="" style="rounded=1;whiteSpace=wrap;html=1;strokeWidth=2;fillWeight=4;hachureGap=8;hachureAngle=45;fillColor=#1ba1e2;sketch=1;" vertex="1" parent="1">
          <mxGeometry x="530" y="300" width="90" height="10" as="geometry" />
        </mxCell>
        <mxCell id="2Txjg-x9fjX_j0PnM1tn-266" value="" style="rounded=1;whiteSpace=wrap;html=1;strokeWidth=2;fillWeight=4;hachureGap=8;hachureAngle=45;fillColor=#00994D;sketch=1;" vertex="1" parent="1">
          <mxGeometry x="440" y="260" width="120" height="10" as="geometry" />
        </mxCell>
        <mxCell id="2Txjg-x9fjX_j0PnM1tn-267" value="" style="rounded=1;whiteSpace=wrap;html=1;strokeWidth=2;fillWeight=4;hachureGap=8;hachureAngle=45;fillColor=#00994D;sketch=1;" vertex="1" parent="1">
          <mxGeometry x="530" y="320" width="60" height="10" as="geometry" />
        </mxCell>
        <mxCell id="2Txjg-x9fjX_j0PnM1tn-268" value="" style="rounded=1;whiteSpace=wrap;html=1;strokeWidth=2;fillWeight=4;hachureGap=8;hachureAngle=45;fillColor=#00994D;sketch=1;" vertex="1" parent="1">
          <mxGeometry x="560" y="340" width="60" height="10" as="geometry" />
        </mxCell>
        <mxCell id="2Txjg-x9fjX_j0PnM1tn-284" style="edgeStyle=orthogonalEdgeStyle;rounded=0;orthogonalLoop=1;jettySize=auto;html=1;" edge="1" parent="1" source="2Txjg-x9fjX_j0PnM1tn-271" target="2Txjg-x9fjX_j0PnM1tn-283">
          <mxGeometry relative="1" as="geometry" />
        </mxCell>
        <mxCell id="2Txjg-x9fjX_j0PnM1tn-271" value="" style="rounded=1;whiteSpace=wrap;html=1;strokeWidth=2;fillWeight=4;hachureGap=8;hachureAngle=45;fillColor=#1ba1e2;sketch=1;" vertex="1" parent="1">
          <mxGeometry x="620" y="360" width="60" height="10" as="geometry" />
        </mxCell>
        <mxCell id="2Txjg-x9fjX_j0PnM1tn-273" value="" style="rounded=1;whiteSpace=wrap;html=1;strokeWidth=2;fillWeight=4;hachureGap=8;hachureAngle=45;fillColor=#1ba1e2;sketch=1;" vertex="1" parent="1">
          <mxGeometry x="680" y="420" width="60" height="10" as="geometry" />
        </mxCell>
        <mxCell id="2Txjg-x9fjX_j0PnM1tn-275" value="" style="rounded=1;whiteSpace=wrap;html=1;strokeWidth=2;fillWeight=4;hachureGap=8;hachureAngle=45;fillColor=#00994D;sketch=1;" vertex="1" parent="1">
          <mxGeometry x="620" y="380" width="60" height="10" as="geometry" />
        </mxCell>
        <mxCell id="2Txjg-x9fjX_j0PnM1tn-276" value="" style="rounded=1;whiteSpace=wrap;html=1;strokeWidth=2;fillWeight=4;hachureGap=8;hachureAngle=45;fillColor=#00994D;sketch=1;" vertex="1" parent="1">
          <mxGeometry x="620" y="400" width="60" height="10" as="geometry" />
        </mxCell>
        <mxCell id="2Txjg-x9fjX_j0PnM1tn-277" value="" style="rounded=1;whiteSpace=wrap;html=1;strokeWidth=2;fillWeight=4;hachureGap=8;hachureAngle=45;fillColor=#00994D;sketch=1;" vertex="1" parent="1">
          <mxGeometry x="680" y="440" width="60" height="10" as="geometry" />
        </mxCell>
        <mxCell id="2Txjg-x9fjX_j0PnM1tn-278" value="" style="rounded=1;whiteSpace=wrap;html=1;strokeWidth=2;fillWeight=4;hachureGap=8;hachureAngle=45;fillColor=#00994D;sketch=1;" vertex="1" parent="1">
          <mxGeometry x="680" y="460" width="60" height="10" as="geometry" />
        </mxCell>
        <mxCell id="2Txjg-x9fjX_j0PnM1tn-279" value="&lt;div&gt;2. Xác định ngôn ngữ lập trình, công cụ phát triển và triển khai thuật toán cho từng chức năng:&lt;/div&gt;&lt;div&gt;&lt;br&gt;&lt;/div&gt;" style="text;html=1;align=center;verticalAlign=middle;resizable=0;points=[];autosize=1;strokeColor=none;fillColor=none;" vertex="1" parent="1">
          <mxGeometry x="-115" y="210" width="530" height="40" as="geometry" />
        </mxCell>
        <mxCell id="2Txjg-x9fjX_j0PnM1tn-280" style="edgeStyle=orthogonalEdgeStyle;rounded=0;orthogonalLoop=1;jettySize=auto;html=1;entryX=0.999;entryY=0.371;entryDx=0;entryDy=0;entryPerimeter=0;" edge="1" parent="1" source="2Txjg-x9fjX_j0PnM1tn-261" target="2Txjg-x9fjX_j0PnM1tn-279">
          <mxGeometry relative="1" as="geometry" />
        </mxCell>
        <mxCell id="2Txjg-x9fjX_j0PnM1tn-281" value="&lt;div&gt;3. Liên kết các chức năng, logic hoá hệ thống:&lt;/div&gt;&lt;div&gt;&lt;br&gt;&lt;/div&gt;" style="text;html=1;align=center;verticalAlign=middle;resizable=0;points=[];autosize=1;strokeColor=none;fillColor=none;" vertex="1" parent="1">
          <mxGeometry x="150" y="290" width="270" height="40" as="geometry" />
        </mxCell>
        <mxCell id="2Txjg-x9fjX_j0PnM1tn-283" value="&lt;div&gt;4. Kiểm tra và xác nhận tính đúng đắn của thuật toán và quy trình logic của hệ thống:&lt;/div&gt;&lt;div&gt;&lt;br&gt;&lt;/div&gt;" style="text;html=1;align=center;verticalAlign=middle;resizable=0;points=[];autosize=1;strokeColor=none;fillColor=none;" vertex="1" parent="1">
          <mxGeometry x="60" y="345" width="480" height="40" as="geometry" />
        </mxCell>
        <mxCell id="2Txjg-x9fjX_j0PnM1tn-286" value="&lt;div&gt;5. Viết báo cáo Thuật Toán, Logic hệ thống&lt;/div&gt;&lt;div&gt;&lt;br&gt;&lt;/div&gt;" style="text;html=1;align=center;verticalAlign=middle;resizable=0;points=[];autosize=1;strokeColor=none;fillColor=none;" vertex="1" parent="1">
          <mxGeometry x="360" y="410" width="250" height="40" as="geometry" />
        </mxCell>
        <mxCell id="2Txjg-x9fjX_j0PnM1tn-287" style="edgeStyle=orthogonalEdgeStyle;rounded=0;orthogonalLoop=1;jettySize=auto;html=1;entryX=0.994;entryY=0.335;entryDx=0;entryDy=0;entryPerimeter=0;" edge="1" parent="1" source="2Txjg-x9fjX_j0PnM1tn-273" target="2Txjg-x9fjX_j0PnM1tn-286">
          <mxGeometry relative="1" as="geometry" />
        </mxCell>
        <mxCell id="2Txjg-x9fjX_j0PnM1tn-288" value="" style="rounded=1;whiteSpace=wrap;html=1;strokeWidth=2;fillWeight=4;hachureGap=8;hachureAngle=45;fillColor=#1ba1e2;sketch=1;" vertex="1" parent="1">
          <mxGeometry x="740" y="480" width="60" height="10" as="geometry" />
        </mxCell>
        <mxCell id="2Txjg-x9fjX_j0PnM1tn-352" style="edgeStyle=orthogonalEdgeStyle;rounded=0;orthogonalLoop=1;jettySize=auto;html=1;" edge="1" parent="1" source="2Txjg-x9fjX_j0PnM1tn-290" target="2Txjg-x9fjX_j0PnM1tn-351">
          <mxGeometry relative="1" as="geometry" />
        </mxCell>
        <mxCell id="2Txjg-x9fjX_j0PnM1tn-290" value="" style="rounded=1;whiteSpace=wrap;html=1;strokeWidth=2;fillWeight=4;hachureGap=8;hachureAngle=45;fillColor=#1ba1e2;sketch=1;" vertex="1" parent="1">
          <mxGeometry x="800" y="560" width="120" height="10" as="geometry" />
        </mxCell>
        <mxCell id="2Txjg-x9fjX_j0PnM1tn-291" value="" style="rounded=1;whiteSpace=wrap;html=1;strokeWidth=2;fillWeight=4;hachureGap=8;hachureAngle=45;fillColor=#1ba1e2;sketch=1;" vertex="1" parent="1">
          <mxGeometry x="920" y="660" width="60" height="10" as="geometry" />
        </mxCell>
        <mxCell id="2Txjg-x9fjX_j0PnM1tn-292" value="" style="rounded=1;whiteSpace=wrap;html=1;strokeWidth=2;fillWeight=4;hachureGap=8;hachureAngle=45;fillColor=#1ba1e2;sketch=1;" vertex="1" parent="1">
          <mxGeometry x="980" y="720" width="60" height="10" as="geometry" />
        </mxCell>
        <mxCell id="2Txjg-x9fjX_j0PnM1tn-293" value="" style="rounded=1;whiteSpace=wrap;html=1;strokeWidth=2;fillWeight=4;hachureGap=8;hachureAngle=45;fillColor=#00994D;sketch=1;" vertex="1" parent="1">
          <mxGeometry x="740" y="500" width="60" height="10" as="geometry" />
        </mxCell>
        <mxCell id="2Txjg-x9fjX_j0PnM1tn-294" value="" style="rounded=1;whiteSpace=wrap;html=1;strokeWidth=2;fillWeight=4;hachureGap=8;hachureAngle=45;fillColor=#00994D;sketch=1;" vertex="1" parent="1">
          <mxGeometry x="740" y="540" width="60" height="10" as="geometry" />
        </mxCell>
        <mxCell id="2Txjg-x9fjX_j0PnM1tn-295" value="" style="rounded=1;whiteSpace=wrap;html=1;strokeWidth=2;fillWeight=4;hachureGap=8;hachureAngle=45;fillColor=#00994D;sketch=1;" vertex="1" parent="1">
          <mxGeometry x="740" y="520" width="60" height="10" as="geometry" />
        </mxCell>
        <mxCell id="2Txjg-x9fjX_j0PnM1tn-298" value="" style="rounded=1;whiteSpace=wrap;html=1;strokeWidth=2;fillWeight=4;hachureGap=8;hachureAngle=45;fillColor=#00994D;sketch=1;" vertex="1" parent="1">
          <mxGeometry x="800" y="580" width="60" height="10" as="geometry" />
        </mxCell>
        <mxCell id="2Txjg-x9fjX_j0PnM1tn-299" value="" style="rounded=1;whiteSpace=wrap;html=1;strokeWidth=2;fillWeight=4;hachureGap=8;hachureAngle=45;fillColor=#00994D;sketch=1;" vertex="1" parent="1">
          <mxGeometry x="800" y="600" width="60" height="10" as="geometry" />
        </mxCell>
        <mxCell id="2Txjg-x9fjX_j0PnM1tn-300" value="" style="rounded=1;whiteSpace=wrap;html=1;strokeWidth=2;fillWeight=4;hachureGap=8;hachureAngle=45;fillColor=#00994D;sketch=1;" vertex="1" parent="1">
          <mxGeometry x="860" y="640" width="60" height="10" as="geometry" />
        </mxCell>
        <mxCell id="2Txjg-x9fjX_j0PnM1tn-301" value="" style="rounded=1;whiteSpace=wrap;html=1;strokeWidth=2;fillWeight=4;hachureGap=8;hachureAngle=45;fillColor=#00994D;sketch=1;" vertex="1" parent="1">
          <mxGeometry x="860" y="620" width="60" height="10" as="geometry" />
        </mxCell>
        <mxCell id="2Txjg-x9fjX_j0PnM1tn-302" value="" style="rounded=1;whiteSpace=wrap;html=1;strokeWidth=2;fillWeight=4;hachureGap=8;hachureAngle=45;fillColor=#00994D;sketch=1;" vertex="1" parent="1">
          <mxGeometry x="920" y="700" width="60" height="10" as="geometry" />
        </mxCell>
        <mxCell id="2Txjg-x9fjX_j0PnM1tn-303" value="" style="rounded=1;whiteSpace=wrap;html=1;strokeWidth=2;fillWeight=4;hachureGap=8;hachureAngle=45;fillColor=#00994D;sketch=1;" vertex="1" parent="1">
          <mxGeometry x="920" y="680" width="60" height="10" as="geometry" />
        </mxCell>
        <mxCell id="2Txjg-x9fjX_j0PnM1tn-305" value="" style="rounded=1;whiteSpace=wrap;html=1;strokeWidth=2;fillWeight=4;hachureGap=8;hachureAngle=45;fillColor=#00994D;sketch=1;" vertex="1" parent="1">
          <mxGeometry x="980" y="760" width="60" height="10" as="geometry" />
        </mxCell>
        <mxCell id="2Txjg-x9fjX_j0PnM1tn-306" value="" style="rounded=1;whiteSpace=wrap;html=1;strokeWidth=2;fillWeight=4;hachureGap=8;hachureAngle=45;fillColor=#00994D;sketch=1;" vertex="1" parent="1">
          <mxGeometry x="980" y="740" width="60" height="10" as="geometry" />
        </mxCell>
        <mxCell id="2Txjg-x9fjX_j0PnM1tn-308" value="" style="rounded=1;whiteSpace=wrap;html=1;strokeWidth=2;fillWeight=4;hachureGap=8;hachureAngle=45;fillColor=#00994D;sketch=1;" vertex="1" parent="1">
          <mxGeometry x="980" y="780" width="60" height="10" as="geometry" />
        </mxCell>
        <mxCell id="2Txjg-x9fjX_j0PnM1tn-309" value="" style="rounded=1;whiteSpace=wrap;html=1;strokeWidth=2;fillWeight=4;hachureGap=8;hachureAngle=45;fillColor=#1ba1e2;sketch=1;" vertex="1" parent="1">
          <mxGeometry x="1040" y="800" width="120" height="10" as="geometry" />
        </mxCell>
        <mxCell id="2Txjg-x9fjX_j0PnM1tn-364" style="edgeStyle=orthogonalEdgeStyle;rounded=0;orthogonalLoop=1;jettySize=auto;html=1;" edge="1" parent="1" source="2Txjg-x9fjX_j0PnM1tn-310" target="2Txjg-x9fjX_j0PnM1tn-360">
          <mxGeometry relative="1" as="geometry" />
        </mxCell>
        <mxCell id="2Txjg-x9fjX_j0PnM1tn-310" value="" style="rounded=1;whiteSpace=wrap;html=1;strokeWidth=2;fillWeight=4;hachureGap=8;hachureAngle=45;fillColor=#1ba1e2;sketch=1;" vertex="1" parent="1">
          <mxGeometry x="1160" y="860" width="120" height="10" as="geometry" />
        </mxCell>
        <mxCell id="2Txjg-x9fjX_j0PnM1tn-311" value="" style="rounded=1;whiteSpace=wrap;html=1;strokeWidth=2;fillWeight=4;hachureGap=8;hachureAngle=45;fillColor=#1ba1e2;sketch=1;" vertex="1" parent="1">
          <mxGeometry x="1280" y="920" width="60" height="10" as="geometry" />
        </mxCell>
        <mxCell id="2Txjg-x9fjX_j0PnM1tn-313" value="" style="rounded=1;whiteSpace=wrap;html=1;strokeWidth=2;fillWeight=4;hachureGap=8;hachureAngle=45;fillColor=#00994D;sketch=1;" vertex="1" parent="1">
          <mxGeometry x="1040" y="820" width="90" height="10" as="geometry" />
        </mxCell>
        <mxCell id="2Txjg-x9fjX_j0PnM1tn-314" value="" style="rounded=1;whiteSpace=wrap;html=1;strokeWidth=2;fillWeight=4;hachureGap=8;hachureAngle=45;fillColor=#00994D;sketch=1;" vertex="1" parent="1">
          <mxGeometry x="1100" y="840" width="60" height="10" as="geometry" />
        </mxCell>
        <mxCell id="2Txjg-x9fjX_j0PnM1tn-318" value="" style="rounded=1;whiteSpace=wrap;html=1;strokeWidth=2;fillWeight=4;hachureGap=8;hachureAngle=45;fillColor=#00994D;sketch=1;" vertex="1" parent="1">
          <mxGeometry x="1160" y="880" width="60" height="10" as="geometry" />
        </mxCell>
        <mxCell id="2Txjg-x9fjX_j0PnM1tn-319" value="" style="rounded=1;whiteSpace=wrap;html=1;strokeWidth=2;fillWeight=4;hachureGap=8;hachureAngle=45;fillColor=#00994D;sketch=1;" vertex="1" parent="1">
          <mxGeometry x="1220" y="900" width="60" height="10" as="geometry" />
        </mxCell>
        <mxCell id="2Txjg-x9fjX_j0PnM1tn-320" value="" style="rounded=1;whiteSpace=wrap;html=1;strokeWidth=2;fillWeight=4;hachureGap=8;hachureAngle=45;fillColor=#00994D;sketch=1;" vertex="1" parent="1">
          <mxGeometry x="1280" y="940" width="60" height="10" as="geometry" />
        </mxCell>
        <mxCell id="2Txjg-x9fjX_j0PnM1tn-321" value="" style="rounded=1;whiteSpace=wrap;html=1;strokeWidth=2;fillWeight=4;hachureGap=8;hachureAngle=45;fillColor=#00994D;sketch=1;" vertex="1" parent="1">
          <mxGeometry x="1280" y="960" width="60" height="10" as="geometry" />
        </mxCell>
        <mxCell id="2Txjg-x9fjX_j0PnM1tn-369" style="edgeStyle=orthogonalEdgeStyle;rounded=0;orthogonalLoop=1;jettySize=auto;html=1;" edge="1" parent="1" source="2Txjg-x9fjX_j0PnM1tn-325" target="2Txjg-x9fjX_j0PnM1tn-367">
          <mxGeometry relative="1" as="geometry" />
        </mxCell>
        <mxCell id="2Txjg-x9fjX_j0PnM1tn-325" value="" style="rounded=1;whiteSpace=wrap;html=1;strokeWidth=2;fillWeight=4;hachureGap=8;hachureAngle=45;fillColor=#1ba1e2;sketch=1;" vertex="1" parent="1">
          <mxGeometry x="1340" y="980" width="120" height="10" as="geometry" />
        </mxCell>
        <mxCell id="2Txjg-x9fjX_j0PnM1tn-372" style="edgeStyle=orthogonalEdgeStyle;rounded=0;orthogonalLoop=1;jettySize=auto;html=1;" edge="1" parent="1" source="2Txjg-x9fjX_j0PnM1tn-326" target="2Txjg-x9fjX_j0PnM1tn-371">
          <mxGeometry relative="1" as="geometry" />
        </mxCell>
        <mxCell id="2Txjg-x9fjX_j0PnM1tn-326" value="" style="rounded=1;whiteSpace=wrap;html=1;strokeWidth=2;fillWeight=4;hachureGap=8;hachureAngle=45;fillColor=#1ba1e2;sketch=1;" vertex="1" parent="1">
          <mxGeometry x="1400" y="1040" width="120" height="10" as="geometry" />
        </mxCell>
        <mxCell id="2Txjg-x9fjX_j0PnM1tn-374" style="edgeStyle=orthogonalEdgeStyle;rounded=0;orthogonalLoop=1;jettySize=auto;html=1;" edge="1" parent="1" source="2Txjg-x9fjX_j0PnM1tn-327" target="2Txjg-x9fjX_j0PnM1tn-373">
          <mxGeometry relative="1" as="geometry" />
        </mxCell>
        <mxCell id="2Txjg-x9fjX_j0PnM1tn-327" value="" style="rounded=1;whiteSpace=wrap;html=1;strokeWidth=2;fillWeight=4;hachureGap=8;hachureAngle=45;fillColor=#1ba1e2;sketch=1;" vertex="1" parent="1">
          <mxGeometry x="1520" y="1100" width="60" height="10" as="geometry" />
        </mxCell>
        <mxCell id="2Txjg-x9fjX_j0PnM1tn-378" style="edgeStyle=orthogonalEdgeStyle;rounded=0;orthogonalLoop=1;jettySize=auto;html=1;" edge="1" parent="1" source="2Txjg-x9fjX_j0PnM1tn-328" target="2Txjg-x9fjX_j0PnM1tn-375">
          <mxGeometry relative="1" as="geometry" />
        </mxCell>
        <mxCell id="2Txjg-x9fjX_j0PnM1tn-328" value="" style="rounded=1;whiteSpace=wrap;html=1;strokeWidth=2;fillWeight=4;hachureGap=8;hachureAngle=45;fillColor=#1ba1e2;sketch=1;" vertex="1" parent="1">
          <mxGeometry x="1550" y="1170" width="90" height="10" as="geometry" />
        </mxCell>
        <mxCell id="2Txjg-x9fjX_j0PnM1tn-329" value="" style="rounded=1;whiteSpace=wrap;html=1;strokeWidth=2;fillWeight=4;hachureGap=8;hachureAngle=45;fillColor=#1ba1e2;sketch=1;" vertex="1" parent="1">
          <mxGeometry x="1640" y="1230" width="60" height="10" as="geometry" />
        </mxCell>
        <mxCell id="2Txjg-x9fjX_j0PnM1tn-382" style="edgeStyle=orthogonalEdgeStyle;rounded=0;orthogonalLoop=1;jettySize=auto;html=1;" edge="1" parent="1" source="2Txjg-x9fjX_j0PnM1tn-330" target="2Txjg-x9fjX_j0PnM1tn-380">
          <mxGeometry relative="1" as="geometry" />
        </mxCell>
        <mxCell id="2Txjg-x9fjX_j0PnM1tn-330" value="" style="rounded=1;whiteSpace=wrap;html=1;strokeWidth=2;fillWeight=4;hachureGap=8;hachureAngle=45;fillColor=#1ba1e2;sketch=1;" vertex="1" parent="1">
          <mxGeometry x="1640" y="1310" width="60" height="10" as="geometry" />
        </mxCell>
        <mxCell id="2Txjg-x9fjX_j0PnM1tn-331" value="" style="rounded=1;whiteSpace=wrap;html=1;strokeWidth=2;fillWeight=4;hachureGap=8;hachureAngle=45;fillColor=#00994D;sketch=1;" vertex="1" parent="1">
          <mxGeometry x="1340" y="1000" width="120" height="10" as="geometry" />
        </mxCell>
        <mxCell id="2Txjg-x9fjX_j0PnM1tn-334" value="" style="rounded=1;whiteSpace=wrap;html=1;strokeWidth=2;fillWeight=4;hachureGap=8;hachureAngle=45;fillColor=#00994D;sketch=1;" vertex="1" parent="1">
          <mxGeometry x="1340" y="1020" width="120" height="10" as="geometry" />
        </mxCell>
        <mxCell id="2Txjg-x9fjX_j0PnM1tn-335" value="" style="rounded=1;whiteSpace=wrap;html=1;strokeWidth=2;fillWeight=4;hachureGap=8;hachureAngle=45;fillColor=#00994D;sketch=1;" vertex="1" parent="1">
          <mxGeometry x="1400" y="1060" width="120" height="10" as="geometry" />
        </mxCell>
        <mxCell id="2Txjg-x9fjX_j0PnM1tn-336" value="" style="rounded=1;whiteSpace=wrap;html=1;strokeWidth=2;fillWeight=4;hachureGap=8;hachureAngle=45;fillColor=#00994D;sketch=1;" vertex="1" parent="1">
          <mxGeometry x="1460" y="1080" width="60" height="10" as="geometry" />
        </mxCell>
        <mxCell id="2Txjg-x9fjX_j0PnM1tn-337" value="" style="rounded=1;whiteSpace=wrap;html=1;strokeWidth=2;fillWeight=4;hachureGap=8;hachureAngle=45;fillColor=#00994D;sketch=1;" vertex="1" parent="1">
          <mxGeometry x="1520" y="1140" width="60" height="10" as="geometry" />
        </mxCell>
        <mxCell id="2Txjg-x9fjX_j0PnM1tn-338" value="" style="rounded=1;whiteSpace=wrap;html=1;strokeWidth=2;fillWeight=4;hachureGap=8;hachureAngle=45;fillColor=#00994D;sketch=1;" vertex="1" parent="1">
          <mxGeometry x="1520" y="1120" width="60" height="10" as="geometry" />
        </mxCell>
        <mxCell id="2Txjg-x9fjX_j0PnM1tn-340" value="" style="rounded=1;whiteSpace=wrap;html=1;strokeWidth=2;fillWeight=4;hachureGap=8;hachureAngle=45;fillColor=#00994D;sketch=1;" vertex="1" parent="1">
          <mxGeometry x="1550" y="1190" width="60" height="10" as="geometry" />
        </mxCell>
        <mxCell id="2Txjg-x9fjX_j0PnM1tn-341" value="" style="rounded=1;whiteSpace=wrap;html=1;strokeWidth=2;fillWeight=4;hachureGap=8;hachureAngle=45;fillColor=#00994D;sketch=1;" vertex="1" parent="1">
          <mxGeometry x="1580" y="1210" width="60" height="10" as="geometry" />
        </mxCell>
        <mxCell id="2Txjg-x9fjX_j0PnM1tn-342" value="" style="rounded=1;whiteSpace=wrap;html=1;strokeWidth=2;fillWeight=4;hachureGap=8;hachureAngle=45;fillColor=#00994D;sketch=1;" vertex="1" parent="1">
          <mxGeometry x="1640" y="1250" width="60" height="10" as="geometry" />
        </mxCell>
        <mxCell id="2Txjg-x9fjX_j0PnM1tn-343" value="" style="rounded=1;whiteSpace=wrap;html=1;strokeWidth=2;fillWeight=4;hachureGap=8;hachureAngle=45;fillColor=#00994D;sketch=1;" vertex="1" parent="1">
          <mxGeometry x="1640" y="1270" width="60" height="10" as="geometry" />
        </mxCell>
        <mxCell id="2Txjg-x9fjX_j0PnM1tn-344" value="" style="rounded=1;whiteSpace=wrap;html=1;strokeWidth=2;fillWeight=4;hachureGap=8;hachureAngle=45;fillColor=#00994D;sketch=1;" vertex="1" parent="1">
          <mxGeometry x="1640" y="1290" width="60" height="10" as="geometry" />
        </mxCell>
        <mxCell id="2Txjg-x9fjX_j0PnM1tn-345" value="" style="rounded=1;whiteSpace=wrap;html=1;strokeWidth=2;fillWeight=4;hachureGap=8;hachureAngle=45;fillColor=#00994D;sketch=1;" vertex="1" parent="1">
          <mxGeometry x="1640" y="1330" width="60" height="10" as="geometry" />
        </mxCell>
        <mxCell id="2Txjg-x9fjX_j0PnM1tn-346" value="" style="rounded=1;whiteSpace=wrap;html=1;strokeWidth=2;fillWeight=4;hachureGap=8;hachureAngle=45;fillColor=#00994D;sketch=1;" vertex="1" parent="1">
          <mxGeometry x="1640" y="1350" width="60" height="10" as="geometry" />
        </mxCell>
        <mxCell id="2Txjg-x9fjX_j0PnM1tn-349" value="&lt;div&gt;1. Thiết Kế Bảng, Thành Phần Dữ Liệu:&lt;/div&gt;&lt;div&gt;&lt;br&gt;&lt;/div&gt;" style="text;html=1;align=center;verticalAlign=middle;resizable=0;points=[];autosize=1;strokeColor=none;fillColor=none;" vertex="1" parent="1">
          <mxGeometry x="430" y="470" width="230" height="40" as="geometry" />
        </mxCell>
        <mxCell id="2Txjg-x9fjX_j0PnM1tn-350" style="edgeStyle=orthogonalEdgeStyle;rounded=0;orthogonalLoop=1;jettySize=auto;html=1;entryX=1.003;entryY=0.352;entryDx=0;entryDy=0;entryPerimeter=0;" edge="1" parent="1" source="2Txjg-x9fjX_j0PnM1tn-288" target="2Txjg-x9fjX_j0PnM1tn-349">
          <mxGeometry relative="1" as="geometry" />
        </mxCell>
        <mxCell id="2Txjg-x9fjX_j0PnM1tn-351" value="&lt;div&gt;2. Thiết Kế Chức Năng:&lt;/div&gt;&lt;div&gt;&lt;br&gt;&lt;/div&gt;" style="text;html=1;align=center;verticalAlign=middle;resizable=0;points=[];autosize=1;strokeColor=none;fillColor=none;" vertex="1" parent="1">
          <mxGeometry x="575" y="560" width="150" height="40" as="geometry" />
        </mxCell>
        <mxCell id="2Txjg-x9fjX_j0PnM1tn-353" value="&lt;div&gt;3. Tối Ưu Hóa và Đảm Bảo Hiệu Suất:&lt;/div&gt;&lt;div&gt;&lt;br&gt;&lt;/div&gt;" style="text;html=1;align=center;verticalAlign=middle;resizable=0;points=[];autosize=1;strokeColor=none;fillColor=none;" vertex="1" parent="1">
          <mxGeometry x="610" y="665" width="230" height="40" as="geometry" />
        </mxCell>
        <mxCell id="2Txjg-x9fjX_j0PnM1tn-354" style="edgeStyle=orthogonalEdgeStyle;rounded=0;orthogonalLoop=1;jettySize=auto;html=1;entryX=1.014;entryY=0.323;entryDx=0;entryDy=0;entryPerimeter=0;" edge="1" parent="1" source="2Txjg-x9fjX_j0PnM1tn-291" target="2Txjg-x9fjX_j0PnM1tn-353">
          <mxGeometry relative="1" as="geometry" />
        </mxCell>
        <mxCell id="2Txjg-x9fjX_j0PnM1tn-355" value="&lt;div&gt;4. Viết báo cáo&amp;nbsp;&lt;/div&gt;&lt;div&gt;&lt;br&gt;&lt;/div&gt;" style="text;html=1;align=center;verticalAlign=middle;resizable=0;points=[];autosize=1;strokeColor=none;fillColor=none;" vertex="1" parent="1">
          <mxGeometry x="790" y="720" width="110" height="40" as="geometry" />
        </mxCell>
        <mxCell id="2Txjg-x9fjX_j0PnM1tn-356" style="edgeStyle=orthogonalEdgeStyle;rounded=0;orthogonalLoop=1;jettySize=auto;html=1;entryX=0.982;entryY=0.401;entryDx=0;entryDy=0;entryPerimeter=0;" edge="1" parent="1" source="2Txjg-x9fjX_j0PnM1tn-292" target="2Txjg-x9fjX_j0PnM1tn-355">
          <mxGeometry relative="1" as="geometry" />
        </mxCell>
        <mxCell id="2Txjg-x9fjX_j0PnM1tn-357" value="&lt;div&gt;1. Xây Dựng Giao Diện Người Dùng (UI):&lt;/div&gt;&lt;div&gt;&lt;br&gt;&lt;/div&gt;" style="text;html=1;align=center;verticalAlign=middle;resizable=0;points=[];autosize=1;strokeColor=none;fillColor=none;" vertex="1" parent="1">
          <mxGeometry x="725" y="830" width="240" height="40" as="geometry" />
        </mxCell>
        <mxCell id="2Txjg-x9fjX_j0PnM1tn-359" style="edgeStyle=orthogonalEdgeStyle;rounded=0;orthogonalLoop=1;jettySize=auto;html=1;entryX=1.004;entryY=0.44;entryDx=0;entryDy=0;entryPerimeter=0;" edge="1" parent="1" source="2Txjg-x9fjX_j0PnM1tn-309" target="2Txjg-x9fjX_j0PnM1tn-357">
          <mxGeometry relative="1" as="geometry" />
        </mxCell>
        <mxCell id="2Txjg-x9fjX_j0PnM1tn-360" value="&lt;div&gt;2. Tích Hợp Các Thành Phần:&lt;/div&gt;&lt;div&gt;&lt;br&gt;&lt;/div&gt;" style="text;html=1;align=center;verticalAlign=middle;resizable=0;points=[];autosize=1;strokeColor=none;fillColor=none;" vertex="1" parent="1">
          <mxGeometry x="920" y="890" width="180" height="40" as="geometry" />
        </mxCell>
        <mxCell id="2Txjg-x9fjX_j0PnM1tn-365" value="3. Kiểm Tra và Gỡ Lỗi:" style="text;html=1;align=center;verticalAlign=middle;resizable=0;points=[];autosize=1;strokeColor=none;fillColor=none;" vertex="1" parent="1">
          <mxGeometry x="1100" y="930" width="140" height="30" as="geometry" />
        </mxCell>
        <mxCell id="2Txjg-x9fjX_j0PnM1tn-366" style="edgeStyle=orthogonalEdgeStyle;rounded=0;orthogonalLoop=1;jettySize=auto;html=1;entryX=1.017;entryY=0.525;entryDx=0;entryDy=0;entryPerimeter=0;" edge="1" parent="1" source="2Txjg-x9fjX_j0PnM1tn-311" target="2Txjg-x9fjX_j0PnM1tn-365">
          <mxGeometry relative="1" as="geometry" />
        </mxCell>
        <mxCell id="2Txjg-x9fjX_j0PnM1tn-367" value="&lt;div&gt;1. Kiểm Tra Mã Nguồn:&lt;/div&gt;&lt;div&gt;&lt;br&gt;&lt;/div&gt;" style="text;html=1;align=center;verticalAlign=middle;resizable=0;points=[];autosize=1;strokeColor=none;fillColor=none;" vertex="1" parent="1">
          <mxGeometry x="1160" y="1000" width="150" height="40" as="geometry" />
        </mxCell>
        <mxCell id="2Txjg-x9fjX_j0PnM1tn-371" value="2. Phân Tích Hiệu Suất:" style="text;html=1;align=center;verticalAlign=middle;resizable=0;points=[];autosize=1;strokeColor=none;fillColor=none;" vertex="1" parent="1">
          <mxGeometry x="1210" y="1030" width="150" height="30" as="geometry" />
        </mxCell>
        <mxCell id="2Txjg-x9fjX_j0PnM1tn-373" value="&lt;div&gt;3. Tối Ưu Hóa Mã Nguồn:&lt;/div&gt;&lt;div&gt;&lt;br&gt;&lt;/div&gt;" style="text;html=1;align=center;verticalAlign=middle;resizable=0;points=[];autosize=1;strokeColor=none;fillColor=none;" vertex="1" parent="1">
          <mxGeometry x="1270" y="1105" width="160" height="40" as="geometry" />
        </mxCell>
        <mxCell id="2Txjg-x9fjX_j0PnM1tn-375" value="&lt;div&gt;4. Kiểm Tra Tính Bảo Mật:&lt;/div&gt;&lt;div&gt;&lt;br&gt;&lt;/div&gt;" style="text;html=1;align=center;verticalAlign=middle;resizable=0;points=[];autosize=1;strokeColor=none;fillColor=none;" vertex="1" parent="1">
          <mxGeometry x="1350" y="1170" width="160" height="40" as="geometry" />
        </mxCell>
        <mxCell id="2Txjg-x9fjX_j0PnM1tn-379" value="5. Viết Báo Cáo Đánh Giá Hiệu Suất Hoạt Động, Tính Bảo Mật Hệ Thống và Khả Năng Mở Rộng Mã Nguồn" style="text;whiteSpace=wrap;" vertex="1" parent="1">
          <mxGeometry x="1770" y="1220" width="560" height="50" as="geometry" />
        </mxCell>
        <mxCell id="2Txjg-x9fjX_j0PnM1tn-380" value="&lt;div&gt;6. Viết Bảng Hướng Dẫn Sử Dụng Phần Mềm&amp;nbsp;&lt;/div&gt;&lt;div&gt;&lt;br&gt;&lt;/div&gt;" style="text;html=1;align=center;verticalAlign=middle;resizable=0;points=[];autosize=1;strokeColor=none;fillColor=none;" vertex="1" parent="1">
          <mxGeometry x="1750" y="1310" width="270" height="40" as="geometry" />
        </mxCell>
        <mxCell id="2Txjg-x9fjX_j0PnM1tn-381" style="edgeStyle=orthogonalEdgeStyle;rounded=0;orthogonalLoop=1;jettySize=auto;html=1;entryX=0.003;entryY=0.373;entryDx=0;entryDy=0;entryPerimeter=0;" edge="1" parent="1" source="2Txjg-x9fjX_j0PnM1tn-329" target="2Txjg-x9fjX_j0PnM1tn-379">
          <mxGeometry relative="1" as="geometry" />
        </mxCell>
      </root>
    </mxGraphModel>
  </diagram>
</mxfile>
